<?xml version="1.0" encoding="UTF-8" standalone="no"?>
<!-- Generator: Adobe Illustrator 14.0.0, SVG Export Plug-In . SVG Version: 6.00 Build 43363)  -->

<svg
   xmlns:dc="http://purl.org/dc/elements/1.1/"
   xmlns:cc="http://creativecommons.org/ns#"
   xmlns:rdf="http://www.w3.org/1999/02/22-rdf-syntax-ns#"
   xmlns:svg="http://www.w3.org/2000/svg"
   xmlns="http://www.w3.org/2000/svg"
   xmlns:sodipodi="http://sodipodi.sourceforge.net/DTD/sodipodi-0.dtd"
   xmlns:inkscape="http://www.inkscape.org/namespaces/inkscape"
   xml:space="preserve"
   height="153.89508"
   width="635.56165"
   version="1.1"
   y="0px"
   x="0px"
   viewBox="0 0 635.56165 153.8934"
   enable-background="new 0 0 666.24 275.907"
   id="svg2"
   inkscape:version="0.47 r22583"
   sodipodi:docname="tmp_logo.svg"><metadata
   id="metadata32"><rdf:RDF><cc:Work
       rdf:about=""><dc:format>image/svg+xml</dc:format><dc:type
         rdf:resource="http://purl.org/dc/dcmitype/StillImage" /><dc:title></dc:title></cc:Work></rdf:RDF></metadata><defs
   id="defs30"><inkscape:perspective
     sodipodi:type="inkscape:persp3d"
     inkscape:vp_x="0 : 138.81737 : 1"
     inkscape:vp_y="0 : 1000 : 0"
     inkscape:vp_z="661.43585 : 138.81737 : 1"
     inkscape:persp3d-origin="330.71793 : 92.544912 : 1"
     id="perspective3013" /><inkscape:perspective
     id="perspective3884"
     inkscape:persp3d-origin="256 : 170.66667 : 1"
     inkscape:vp_z="512 : 256 : 1"
     inkscape:vp_y="0 : 1000 : 0"
     inkscape:vp_x="0 : 256 : 1"
     sodipodi:type="inkscape:persp3d" /></defs><sodipodi:namedview
   pagecolor="#ffb500"
   bordercolor="#666666"
   borderopacity="1"
   objecttolerance="10"
   gridtolerance="10"
   guidetolerance="10"
   inkscape:pageopacity="0"
   inkscape:pageshadow="2"
   inkscape:window-width="1280"
   inkscape:window-height="723"
   id="namedview28"
   showgrid="false"
   inkscape:zoom="2.0351935"
   inkscape:cx="173.38236"
   inkscape:cy="5.0822463"
   inkscape:window-x="0"
   inkscape:window-y="25"
   inkscape:window-maximized="1"
   inkscape:current-layer="svg2"
   fit-margin-top="0"
   fit-margin-left="0"
   fit-margin-right="0"
   fit-margin-bottom="0"
   showguides="true"
   inkscape:guide-bbox="true" />

<rect
   style="fill:#000000;fill-opacity:1;stroke:none"
   id="rect3945"
   width="260.41751"
   height="123.82115"
   x="27.515812"
   y="168.63486" /><flowRoot
   xml:space="preserve"
   id="flowRoot3015"
   style="font-size:40px;font-style:normal;font-weight:normal;fill:#ffffff;fill-opacity:1;stroke:none;font-family:Bitstream Vera Sans"
   transform="matrix(0.98269366,0,0,0.98269366,-526.77137,-7.0712325)"
   inkscape:export-filename="/home/hhkaos/workspace/mentoring_manager/mentoring_manager/static/images/logo/tmp_logo.png"
   inkscape:export-xdpi="90"
   inkscape:export-ydpi="90"><flowRegion
     id="flowRegion3017"><rect
       id="rect3019"
       width="570.98853"
       height="240.0239"
       x="614.22266"
       y="104.69826"
       style="font-size:40px;fill:#ffffff;fill-opacity:1" /></flowRegion><flowPara
     style="font-size:40px;font-style:normal;font-variant:normal;font-weight:normal;font-stretch:normal;fill:#ffffff;fill-opacity:1;font-family:Montserrat Alternates;-inkscape-font-specification:Montserrat Alternates"
     id="flowPara3038">mento</flowPara></flowRoot>
<path
   id="path3876"
   d="m 61.402455,102.13651 c -5.522498,0 -9.999998,4.47758 -9.999998,10.00001 0,5.00002 5,10.07814 5,15 l 9.999998,0 c 0,-5.07813 5.000001,-9.99998 5.000001,-15 0,-5.52243 -4.477499,-10.00001 -10.000001,-10.00001 z m 5.280779,16.32077 c -0.996091,1.98004 -2.014137,4.01127 -2.495155,6.17926 l -4.846483,-1.47409 c -0.480937,-2.10201 -2.214062,-2.62747 -3.188202,-4.58061 -1.157185,-2.32664 1.742556,6.06292 3.645307,6.32988 4.667862,0.65491 5.943906,0.97585 8.114195,-6.76297 1.116736,-3.98208 2.720019,-6.52361 1.603752,-5.27518 -1.266085,1.41596 -1.693256,3.31085 -2.833414,5.58371 z m -0.280779,14.92926 c 0,0.69092 -0.559062,1.25 -1.25,1.25 l -0.229529,0 c -0.515157,1.45503 -1.889687,2.49997 -3.520549,2.49997 -1.630856,0 -3.005391,-1.04494 -3.520548,-2.49997 l -0.229372,0 c -0.690938,0 -1.25,-0.55908 -1.25,-1.25 0,-0.69096 0.559062,-1.25004 1.25,-1.25004 l 7.499998,0 c 0.690938,0 1.25,0.55908 1.25,1.25004 z m 0,-3.75002 c 0,0.69095 -0.559062,1.24999 -1.25,1.24999 l -7.499998,0 c -0.690938,0 -1.25,-0.55904 -1.25,-1.24999 0,-0.69094 0.559062,-1.25001 1.25,-1.25001 l 7.499998,0 c 0.690938,0 1.25,0.55907 1.25,1.25001 z"
   sodipodi:nodetypes="csccsccccssssccccsccsccccccsccc"
   style="fill:#ffffff"
   inkscape:export-filename="/home/hhkaos/workspace/mentoring_manager/mentoring_manager/static/images/logo/tmp_logo.png"
   inkscape:export-xdpi="90"
   inkscape:export-ydpi="90" /></svg>